# xmcd CD database file
#
# Track frame offsets:
#	150
#	29910
#	59638
#	78903
#	116653
#	148685
#	180313
#	222968
#	256995
#
# Disc length: 3484 seconds
#
# Revision: 0
# Processed by: cddbd v1.5.2PL0 Copyright (c) Steve Scherf et al.
# Submitted via: CDex 2.00
#
DISCID=840d9a09
DTITLE=Frevo - Frevo
DYEAR=1991
DGENRE=Jazz
TTITLE0=Events
TTITLE1=Joy
TTITLE2=Dee-Tee
TTITLE3=Victory?
TTITLE4=Touch
TTITLE5=Into the Night
TTITLE6=Songlines
TTITLE7=Thanks!
TTITLE8=Touched
EXTD=YEAR: 1991
EXTT0=
EXTT1=
EXTT2=
EXTT3=
EXTT4=
EXTT5=
EXTT6=
EXTT7=
EXTT8=
PLAYORDER=
